<svg width="512" height="512" viewBox="0 0 512 512" xmlns="http://www.w3.org/2000/svg">
  <defs>
    <linearGradient id="bg" x1="0" y1="0" x2="1" y2="1">
      <stop offset="0%" stop-color="#fbc4dd" />
      <stop offset="100%" stop-color="#f9a8c9" />
    </linearGradient>
  </defs>
  <rect width="512" height="512" fill="url(#bg)" />
  <g transform="translate(256 256) scale(0.62) translate(-256 -256)">
    <path
      fill="#ffffff"
      d="M256 96c6 56 22 98 56 132 34 34 76 50 132 56-56 6-98 22-132 56-34 34-50 76-56 132-6-56-22-98-56-132-34-34-76-50-132-56 56-6 98-22 132-56 34-34 50-76 56-132z"
    />
    <circle cx="358" cy="120" r="16" fill="#ffffff" />
    <circle cx="138" cy="372" r="12" fill="#ffffff" />
  </g>
</svg>
